<svg width="38" height="38" viewBox="0 0 38 38" fill="none" xmlns="http://www.w3.org/2000/svg">
<path d="M10.6667 0.25C9.5616 0.25 8.50179 0.688987 7.72039 1.47039C6.93899 2.25179 6.5 3.3116 6.5 4.41667V12.75C6.5 13.8551 6.06101 14.9149 5.27961 15.6963C4.49821 16.4777 3.4384 16.9167 2.33333 16.9167H0.25V21.0833H2.33333C3.4384 21.0833 4.49821 21.5223 5.27961 22.3037C6.06101 23.0851 6.5 24.1449 6.5 25.25V33.5833C6.5 34.6884 6.93899 35.7482 7.72039 36.5296C8.50179 37.311 9.5616 37.75 10.6667 37.75H14.8333V33.5833H10.6667V23.1667C10.6667 22.0616 10.2277 21.0018 9.44628 20.2204C8.66488 19.439 7.60507 19 6.5 19C7.60507 19 8.66488 18.561 9.44628 17.7796C10.2277 16.9982 10.6667 15.9384 10.6667 14.8333V4.41667H14.8333V0.25M27.3333 0.25C28.4384 0.25 29.4982 0.688987 30.2796 1.47039C31.061 2.25179 31.5 3.3116 31.5 4.41667V12.75C31.5 13.8551 31.939 14.9149 32.7204 15.6963C33.5018 16.4777 34.5616 16.9167 35.6667 16.9167H37.75V21.0833H35.6667C34.5616 21.0833 33.5018 21.5223 32.7204 22.3037C31.939 23.0851 31.5 24.1449 31.5 25.25V33.5833C31.5 34.6884 31.061 35.7482 30.2796 36.5296C29.4982 37.311 28.4384 37.75 27.3333 37.75H23.1667V33.5833H27.3333V23.1667C27.3333 22.0616 27.7723 21.0018 28.5537 20.2204C29.3351 19.439 30.3949 19 31.5 19C30.3949 19 29.3351 18.561 28.5537 17.7796C27.7723 16.9982 27.3333 15.9384 27.3333 14.8333V4.41667H23.1667V0.25H27.3333Z" fill="#70FF00"/>
</svg>
