<svg width="112" height="126" viewBox="0 0 112 126" fill="none" xmlns="http://www.w3.org/2000/svg">
<path d="M10.8138 113.123L0.759766 0.35199H111.24L101.176 113.106L55.9328 125.649L10.8138 113.123Z" fill="#1572B6"/>
<path d="M56.001 116.062L92.56 105.926L101.161 9.57202H56.001V116.062Z" fill="#33A9DC"/>
<path d="M56.001 50.429H74.303L75.567 36.266H56.001V22.435H90.683L90.351 26.146L86.951 64.26H56.001V50.429Z" fill="white"/>
<path d="M56.083 86.349L56.022 86.367L40.619 82.208L39.634 71.177H25.752L27.689 92.894L56.02 100.757L56.083 100.739V86.349Z" fill="#EBEBEB"/>
<path d="M73.1272 63.675L71.4612 82.197L56.0352 86.361V100.751L84.3892 92.893L84.5972 90.556L87.0032 63.675H73.1272Z" fill="white"/>
<path d="M56.0479 22.435V36.266H22.6399L22.3629 33.158L21.7329 26.146L21.4019 22.435H56.0479ZM56.0009 50.431V64.262H40.7919L40.5149 61.154L39.8839 54.142L39.5539 50.431H56.0009Z" fill="#EBEBEB"/>
</svg>
