<svg width="303" height="30" viewBox="0 0 303 30" fill="none" xmlns="http://www.w3.org/2000/svg">
<path d="M15.4997 25.1328L7.98641 29.7191C7.65449 29.9331 7.3075 30.0248 6.94541 29.9943C6.58333 29.9637 6.2665 29.8414 5.99494 29.6274C5.72338 29.4133 5.51216 29.1461 5.36129 28.8257C5.21042 28.504 5.18025 28.1445 5.27077 27.747L7.26224 19.0789L0.608935 13.2543C0.307198 12.9792 0.118914 12.6655 0.0440833 12.3132C-0.0319545 11.9622 -0.00962605 11.6186 0.111069 11.2822C0.231764 10.9459 0.412806 10.6707 0.654195 10.4567C0.895585 10.2427 1.2275 10.1051 1.64993 10.044L10.4305 9.26429L13.825 1.10071C13.9759 0.733805 14.21 0.458628 14.5275 0.275177C14.8437 0.0917258 15.1677 0 15.4997 0C15.8316 0 16.1562 0.0917258 16.4737 0.275177C16.7899 0.458628 17.0234 0.733805 17.1743 1.10071L20.5688 9.26429L29.3494 10.044C29.7718 10.1051 30.1037 10.2427 30.3451 10.4567C30.5865 10.6707 30.7676 10.9459 30.8882 11.2822C31.0089 11.6186 31.0319 11.9622 30.957 12.3132C30.881 12.6655 30.6921 12.9792 30.3904 13.2543L23.7371 19.0789L25.7285 27.747C25.8191 28.1445 25.7889 28.504 25.638 28.8257C25.4872 29.1461 25.2759 29.4133 25.0044 29.6274C24.7328 29.8414 24.416 29.9637 24.0539 29.9943C23.6918 30.0248 23.3448 29.9331 23.0129 29.7191L15.4997 25.1328Z" fill="#F5DE19"/>
<path d="M83.4997 25.1328L75.9864 29.7191C75.6545 29.9331 75.3075 30.0248 74.9454 29.9943C74.5833 29.9637 74.2665 29.8414 73.9949 29.6274C73.7234 29.4133 73.5122 29.1461 73.3613 28.8257C73.2104 28.504 73.1803 28.1445 73.2708 27.747L75.2622 19.0789L68.6089 13.2543C68.3072 12.9792 68.1189 12.6655 68.0441 12.3132C67.968 11.9622 67.9904 11.6186 68.1111 11.2822C68.2318 10.9459 68.4128 10.6707 68.6542 10.4567C68.8956 10.2427 69.2275 10.1051 69.6499 10.044L78.4305 9.26429L81.825 1.10071C81.9759 0.733805 82.21 0.458628 82.5275 0.275177C82.8437 0.0917258 83.1677 0 83.4997 0C83.8316 0 84.1562 0.0917258 84.4737 0.275177C84.7899 0.458628 85.0234 0.733805 85.1743 1.10071L88.5688 9.26429L97.3494 10.044C97.7718 10.1051 98.1037 10.2427 98.3451 10.4567C98.5865 10.6707 98.7676 10.9459 98.8882 11.2822C99.0089 11.6186 99.0319 11.9622 98.957 12.3132C98.881 12.6655 98.6921 12.9792 98.3904 13.2543L91.7371 19.0789L93.7285 27.747C93.8191 28.1445 93.7889 28.504 93.638 28.8257C93.4872 29.1461 93.2759 29.4133 93.0044 29.6274C92.7328 29.8414 92.416 29.9637 92.0539 29.9943C91.6918 30.0248 91.3448 29.9331 91.0129 29.7191L83.4997 25.1328Z" fill="#F5DE19"/>
<path d="M151.5 25.1328L143.986 29.7191C143.654 29.9331 143.307 30.0248 142.945 29.9943C142.583 29.9637 142.267 29.8414 141.995 29.6274C141.723 29.4133 141.512 29.1461 141.361 28.8257C141.21 28.504 141.18 28.1445 141.271 27.747L143.262 19.0789L136.609 13.2543C136.307 12.9792 136.119 12.6655 136.044 12.3132C135.968 11.9622 135.99 11.6186 136.111 11.2822C136.232 10.9459 136.413 10.6707 136.654 10.4567C136.896 10.2427 137.227 10.1051 137.65 10.044L146.43 9.26429L149.825 1.10071C149.976 0.733805 150.21 0.458628 150.527 0.275177C150.844 0.0917258 151.168 0 151.5 0C151.832 0 152.156 0.0917258 152.474 0.275177C152.79 0.458628 153.023 0.733805 153.174 1.10071L156.569 9.26429L165.349 10.044C165.772 10.1051 166.104 10.2427 166.345 10.4567C166.587 10.6707 166.768 10.9459 166.888 11.2822C167.009 11.6186 167.032 11.9622 166.957 12.3132C166.881 12.6655 166.692 12.9792 166.39 13.2543L159.737 19.0789L161.729 27.747C161.819 28.1445 161.789 28.504 161.638 28.8257C161.487 29.1461 161.276 29.4133 161.004 29.6274C160.733 29.8414 160.416 29.9637 160.054 29.9943C159.692 30.0248 159.345 29.9331 159.013 29.7191L151.5 25.1328Z" fill="#F5DE19"/>
<path d="M219.5 25.1328L211.986 29.7191C211.654 29.9331 211.307 30.0248 210.945 29.9943C210.583 29.9637 210.267 29.8414 209.995 29.6274C209.723 29.4133 209.512 29.1461 209.361 28.8257C209.21 28.504 209.18 28.1445 209.271 27.747L211.262 19.0789L204.609 13.2543C204.307 12.9792 204.119 12.6655 204.044 12.3132C203.968 11.9622 203.99 11.6186 204.111 11.2822C204.232 10.9459 204.413 10.6707 204.654 10.4567C204.896 10.2427 205.227 10.1051 205.65 10.044L214.43 9.26429L217.825 1.10071C217.976 0.733805 218.21 0.458628 218.527 0.275177C218.844 0.0917258 219.168 0 219.5 0C219.832 0 220.156 0.0917258 220.474 0.275177C220.79 0.458628 221.023 0.733805 221.174 1.10071L224.569 9.26429L233.349 10.044C233.772 10.1051 234.104 10.2427 234.345 10.4567C234.587 10.6707 234.768 10.9459 234.888 11.2822C235.009 11.6186 235.032 11.9622 234.957 12.3132C234.881 12.6655 234.692 12.9792 234.39 13.2543L227.737 19.0789L229.729 27.747C229.819 28.1445 229.789 28.504 229.638 28.8257C229.487 29.1461 229.276 29.4133 229.004 29.6274C228.733 29.8414 228.416 29.9637 228.054 29.9943C227.692 30.0248 227.345 29.9331 227.013 29.7191L219.5 25.1328Z" fill="#F5DE19"/>
<path d="M287.5 25.1328L279.986 29.7191C279.654 29.9331 279.307 30.0248 278.945 29.9943C278.583 29.9637 278.267 29.8414 277.995 29.6274C277.723 29.4133 277.512 29.1461 277.361 28.8257C277.21 28.504 277.18 28.1445 277.271 27.747L279.262 19.0789L272.609 13.2543C272.307 12.9792 272.119 12.6655 272.044 12.3132C271.968 11.9622 271.99 11.6186 272.111 11.2822C272.232 10.9459 272.413 10.6707 272.654 10.4567C272.896 10.2427 273.227 10.1051 273.65 10.044L282.43 9.26429L285.825 1.10071C285.976 0.733805 286.21 0.458628 286.527 0.275177C286.844 0.0917258 287.168 0 287.5 0C287.832 0 288.156 0.0917258 288.474 0.275177C288.79 0.458628 289.023 0.733805 289.174 1.10071L292.569 9.26429L301.349 10.044C301.772 10.1051 302.104 10.2427 302.345 10.4567C302.587 10.6707 302.768 10.9459 302.888 11.2822C303.009 11.6186 303.032 11.9622 302.957 12.3132C302.881 12.6655 302.692 12.9792 302.39 13.2543L295.737 19.0789L297.729 27.747C297.819 28.1445 297.789 28.504 297.638 28.8257C297.487 29.1461 297.276 29.4133 297.004 29.6274C296.733 29.8414 296.416 29.9637 296.054 29.9943C295.692 30.0248 295.345 29.9331 295.013 29.7191L287.5 25.1328Z" fill="#F5DE19"/>
</svg>
