<svg width="39" height="38" viewBox="0 0 39 38" fill="none" xmlns="http://www.w3.org/2000/svg">
<circle cx="19.2481" cy="18.8683" r="18.8683" fill="url(#paint0_linear_51_159)"/>
<g clip-path="url(#clip0_51_159)">
<path d="M31.0404 11.4977V26.2385C31.0404 27.0751 30.4029 27.7126 29.5663 27.7126H28.0922V14.3346L19.2477 20.6879L10.4032 14.3346V27.7126H8.92916C8.09262 27.7126 7.45508 27.0751 7.45508 26.2385V11.4977C7.45508 11.0791 7.6128 10.7105 7.8774 10.4496C8.01521 10.3118 8.17933 10.203 8.36001 10.1298C8.54069 10.0566 8.73425 10.0205 8.92916 10.0236H9.42077L19.2477 17.1486L29.0747 10.0236H29.5663C29.985 10.0236 30.3535 10.1813 30.6181 10.4496C30.8827 10.7105 31.0404 11.0791 31.0404 11.4977Z" fill="#1F2626"/>
</g>
<defs>
<linearGradient id="paint0_linear_51_159" x1="0.379883" y1="18.8683" x2="38.1164" y2="18.8683" gradientUnits="userSpaceOnUse">
<stop stop-color="#00C2FF"/>
<stop offset="1" stop-color="#00D9F5"/>
</linearGradient>
<clipPath id="clip0_51_159">
<rect width="23.5853" height="23.5853" fill="white" transform="translate(7.45508 7.07568)"/>
</clipPath>
</defs>
</svg>
