<svg width="19" height="17" viewBox="0 0 19 17" fill="none" xmlns="http://www.w3.org/2000/svg">
<path d="M17.0716 9.19726L10.427 15.8418C10.3057 15.9643 10.1614 16.0616 10.0023 16.128C9.84315 16.1943 9.67247 16.2285 9.50007 16.2285C9.32767 16.2285 9.15698 16.1943 8.99787 16.128C8.83877 16.0616 8.6944 15.9643 8.57311 15.8418L1.75632 9.02499C1.28317 8.55311 0.91125 7.98967 0.663293 7.36914C0.415336 6.74861 0.296556 6.08402 0.314216 5.41602C0.331876 4.74801 0.485605 4.09063 0.766002 3.48406C1.0464 2.8775 1.44757 2.3345 1.94499 1.88828C3.85632 0.157416 6.97351 0.321478 8.88483 2.24101L9.50007 2.84804L10.2876 2.06874C10.7598 1.5982 11.3222 1.2278 11.941 0.979723C12.5597 0.731646 13.2222 0.610995 13.8887 0.624994C14.5583 0.641327 15.2174 0.79459 15.8254 1.07534C16.4335 1.35609 16.9776 1.75838 17.4243 2.25742C19.1469 4.16874 18.9911 7.28593 17.0716 9.19726Z" fill="white" fill-opacity="0.85"/>
</svg>
