<svg width="107" height="122" viewBox="0 0 107 122" fill="none" xmlns="http://www.w3.org/2000/svg">
<path d="M102.771 27.334L58.674 1.72902C55.893 0.145016 52.272 0.145016 49.469 1.72902L4.901 27.334C2.031 28.985 0 32.088 0 35.407V86.549C0 89.868 2.084 92.972 4.954 94.632L16.729 101.32C22.357 104.092 24.346 104.092 26.907 104.092C35.24 104.092 40 99.053 40 90.264V39.774C40 39.061 39.629 38 38.929 38H33.306C32.594 38 31 39.061 31 39.773V90.263C31 94.159 27.476 98.036 20.89 94.743L8.723 87.73C8.299 87.5 8 87.037 8 86.549V35.407C8 34.925 8.555 34.441 8.982 34.194L53.406 8.63302C53.821 8.39802 54.431 8.39802 54.845 8.63302L98.727 34.188C99.147 34.441 98.999 34.91 98.999 35.407V86.549C98.999 87.037 99.182 87.512 98.767 87.747L54.681 113.323C54.303 113.55 53.834 113.55 53.42 113.323L42.113 106.574C41.772 106.376 41.367 106.305 41.04 106.488C37.894 108.271 37.314 108.508 34.363 109.531C33.637 109.784 32.566 110.223 34.773 111.46L49.571 120.214C50.9838 121.03 52.5865 121.46 54.218 121.46C55.86 121.46 57.468 121.034 58.885 120.214L102.77 94.632C105.64 92.96 107 89.868 107 86.549V35.407C107 32.088 105.64 28.993 102.771 27.334ZM67.91 78.445C56.184 78.445 53.601 75.21 52.74 69.379C52.64 68.751 52.107 68 51.468 68H45.737C45.028 68 44.458 68.86 44.458 69.566C44.458 77.032 48.517 86.078 67.911 86.078C81.95 86.078 89.999 80.623 89.999 70.969C89.999 61.397 83.532 58.885 69.917 57.083C56.155 55.264 54.757 54.345 54.757 51.121C54.757 48.463 55.941 44.918 66.131 44.918C75.236 44.918 78.592 46.872 79.973 53.009C80.091 53.586 80.618 54 81.213 54H86.967C87.321 54 87.659 53.857 87.907 53.604C88.147 53.332 88.274 52.991 88.242 52.625C87.351 42.057 80.33 37.132 66.13 37.132C53.499 37.132 45.964 42.466 45.964 51.407C45.964 61.105 53.461 63.785 65.586 64.984C80.091 66.406 81.219 68.526 81.219 71.379C81.219 76.334 77.241 78.445 67.91 78.445Z" fill="#83CD29"/>
</svg>
