<svg width="143" height="143" viewBox="0 0 143 143" fill="none" xmlns="http://www.w3.org/2000/svg">
<g filter="url(#filter0_d_0_1)">
<circle cx="71.5" cy="67.5" r="62.5" fill="#333333"/>
</g>
<path d="M71.5001 76.6734C76.5664 76.6734 80.6735 72.5664 80.6735 67.5C80.6735 62.4337 76.5664 58.3266 71.5001 58.3266C66.4337 58.3266 62.3267 62.4337 62.3267 67.5C62.3267 72.5664 66.4337 76.6734 71.5001 76.6734Z" fill="#61DAFB"/>
<path d="M106.343 52.3719C104.573 51.7281 102.722 51.0844 100.791 50.5211C101.273 48.5899 101.676 46.6586 101.998 44.8078C103.687 34.1859 101.837 26.7023 96.6866 23.8055C95.1577 22.9203 93.4679 22.518 91.5366 22.518C85.9038 22.518 78.7421 26.7023 71.4999 33.7031C64.2577 26.7023 57.096 22.518 51.4632 22.518C49.5319 22.518 47.8421 22.9203 46.3132 23.8055C41.1632 26.7828 39.3124 34.2664 41.0022 44.8078C41.3241 46.6586 41.7265 48.5899 42.2093 50.5211C40.278 51.0844 38.4272 51.6477 36.6569 52.3719C26.5983 56.2344 21.1265 61.5453 21.1265 67.5C21.1265 73.4547 26.6788 78.7656 36.6569 82.6281C38.4272 83.2719 40.278 83.9156 42.2093 84.4789C41.7265 86.4102 41.3241 88.3414 41.0022 90.1922C39.3124 100.814 41.1632 108.298 46.3132 111.195C47.8421 112.08 49.5319 112.482 51.4632 112.482C57.1765 112.482 64.3382 108.298 71.4999 101.297C78.7421 108.298 85.9038 112.482 91.5366 112.482C93.4679 112.482 95.1577 112.08 96.6866 111.195C101.837 108.217 103.687 100.734 101.998 90.1922C101.676 88.3414 101.273 86.4102 100.791 84.4789C102.722 83.9156 104.573 83.3524 106.343 82.6281C116.401 78.7656 121.873 73.4547 121.873 67.5C121.873 61.5453 116.401 56.2344 106.343 52.3719V52.3719ZM94.4335 27.8289C97.7327 29.7602 98.8593 35.7148 97.4913 44.1641C97.2499 45.8539 96.8476 47.6242 96.3647 49.475C92.1804 48.5094 87.7546 47.8656 83.0874 47.4633C80.3515 43.6008 77.5351 40.1406 74.7187 37.0023C80.6733 31.1281 86.7085 27.1047 91.6171 27.1047C92.6632 27.1047 93.6288 27.3461 94.4335 27.8289V27.8289ZM85.421 75.5469C83.9726 78.1219 82.2827 80.6969 80.5124 83.2719C77.5351 83.5133 74.5577 83.5938 71.4999 83.5938C68.3616 83.5938 65.3843 83.5133 62.4874 83.2719C60.7171 80.6969 59.1077 78.1219 57.6593 75.5469C56.1304 72.8914 54.6819 70.1555 53.3944 67.5C54.6819 64.8445 56.1304 62.1086 57.6593 59.4531C59.1077 56.8781 60.7976 54.3031 62.5679 51.7281C65.5452 51.4867 68.5226 51.4063 71.5804 51.4063C74.7186 51.4063 77.696 51.4867 80.5929 51.7281C82.3632 54.3031 83.9726 56.8781 85.421 59.4531C86.9499 62.1086 88.3983 64.8445 89.6858 67.5C88.3179 70.1555 86.9499 72.8109 85.421 75.5469ZM92.0999 72.8914C93.3069 75.7078 94.2726 78.4438 95.1577 81.1797C92.4218 81.8234 89.5249 82.3063 86.4671 82.7086C87.4327 81.1797 88.4788 79.5703 89.364 77.8805C90.3296 76.1906 91.2147 74.5008 92.0999 72.8914ZM71.4999 94.6984C69.5687 92.6063 67.7179 90.3531 65.9476 88.0195C67.7983 88.1 69.6491 88.1805 71.4999 88.1805C73.3507 88.1805 75.2015 88.1 77.0522 88.0195C75.2819 90.3531 73.4312 92.6063 71.4999 94.6984ZM56.5327 82.6281C53.4749 82.2258 50.578 81.743 47.8421 81.0992C48.7272 78.4438 49.6929 75.6273 50.8999 72.8109C51.7851 74.4203 52.6702 76.1102 53.6358 77.7195C54.6015 79.4898 55.5671 81.0188 56.5327 82.6281V82.6281ZM50.8999 62.1086C49.6929 59.2922 48.7272 56.5563 47.8421 53.8203C50.578 53.1766 53.4749 52.6938 56.5327 52.2914C55.5671 53.8203 54.521 55.4297 53.6358 57.1195C52.6702 58.8094 51.7851 60.4992 50.8999 62.1086V62.1086ZM71.4999 40.3016C73.4312 42.3938 75.2819 44.6469 77.0522 46.9805C75.2015 46.9 73.3507 46.8195 71.4999 46.8195C69.6491 46.8195 67.7983 46.9 65.9476 46.9805C67.7179 44.6469 69.5687 42.3938 71.4999 40.3016ZM89.364 57.2L86.4671 52.3719C89.5249 52.7742 92.4218 53.257 95.1577 53.9008C94.2726 56.5563 93.3069 59.3727 92.0999 62.1891C91.2147 60.4992 90.3296 58.8094 89.364 57.2ZM45.5085 44.1641C44.1405 35.7148 45.2671 29.7602 48.5663 27.8289C49.371 27.3461 50.3366 27.1047 51.3827 27.1047C56.2108 27.1047 62.246 31.0477 68.2812 37.0023C65.4647 40.0602 62.6483 43.6008 59.9124 47.4633C55.2452 47.8656 50.8194 48.5898 46.6351 49.475C46.1522 47.6242 45.8304 45.8539 45.5085 44.1641V44.1641ZM25.6327 67.5C25.6327 63.718 30.2194 59.6945 38.2663 56.7172C39.8757 56.0734 41.646 55.5102 43.4163 55.0274C44.7038 59.0508 46.3132 63.3156 48.2444 67.5805C46.3132 71.8453 44.6233 76.0297 43.4163 80.0531C32.3116 76.8344 25.6327 72.0063 25.6327 67.5ZM48.5663 107.171C45.2671 105.24 44.1405 99.2852 45.5085 90.8359C45.7499 89.1461 46.1522 87.3758 46.6351 85.525C50.8194 86.4906 55.2452 87.1344 59.9124 87.5367C62.6483 91.3992 65.4647 94.8594 68.2812 97.9977C62.3265 103.872 56.2913 107.895 51.3827 107.895C50.3366 107.895 49.371 107.654 48.5663 107.171ZM97.4913 90.8359C98.8593 99.2852 97.7327 105.24 94.4335 107.171C93.6288 107.654 92.6632 107.895 91.6171 107.895C86.789 107.895 80.7538 103.952 74.7187 97.9977C77.5351 94.9399 80.3515 91.3992 83.0874 87.5367C87.7546 87.1344 92.1804 86.4102 96.3647 85.525C96.8476 87.3758 97.1694 89.1461 97.4913 90.8359V90.8359ZM104.733 78.2828C103.124 78.9266 101.354 79.4899 99.5835 79.9727C98.296 75.9492 96.6866 71.6844 94.7554 67.4195C96.6866 63.1547 98.3765 58.9703 99.5835 54.9469C110.688 58.1656 117.367 62.9938 117.367 67.5C117.367 71.282 112.7 75.3055 104.733 78.2828Z" fill="#61DAFB"/>
<defs>
<filter id="filter0_d_0_1" x="0" y="0" width="143" height="143" filterUnits="userSpaceOnUse" color-interpolation-filters="sRGB">
<feFlood flood-opacity="0" result="BackgroundImageFix"/>
<feColorMatrix in="SourceAlpha" type="matrix" values="0 0 0 0 0 0 0 0 0 0 0 0 0 0 0 0 0 0 127 0" result="hardAlpha"/>
<feMorphology radius="5" operator="dilate" in="SourceAlpha" result="effect1_dropShadow_0_1"/>
<feOffset dy="4"/>
<feGaussianBlur stdDeviation="2"/>
<feComposite in2="hardAlpha" operator="out"/>
<feColorMatrix type="matrix" values="0 0 0 0 0 0 0 0 0 0 0 0 0 0 0 0 0 0 0.06 0"/>
<feBlend mode="normal" in2="BackgroundImageFix" result="effect1_dropShadow_0_1"/>
<feBlend mode="normal" in="SourceGraphic" in2="effect1_dropShadow_0_1" result="shape"/>
</filter>
</defs>
</svg>
