<svg width="31" height="30" viewBox="0 0 31 30" fill="none" xmlns="http://www.w3.org/2000/svg">
<path d="M15.4997 25.1328L7.98641 29.7191C7.65449 29.9331 7.3075 30.0248 6.94541 29.9943C6.58333 29.9637 6.2665 29.8414 5.99494 29.6274C5.72338 29.4133 5.51216 29.1461 5.36129 28.8257C5.21042 28.504 5.18025 28.1445 5.27077 27.747L7.26224 19.0789L0.608935 13.2543C0.307198 12.9792 0.118914 12.6655 0.0440833 12.3132C-0.0319545 11.9622 -0.00962605 11.6186 0.111069 11.2822C0.231764 10.9459 0.412806 10.6707 0.654195 10.4567C0.895585 10.2427 1.2275 10.1051 1.64993 10.044L10.4305 9.26429L13.825 1.10071C13.9759 0.733805 14.21 0.458628 14.5275 0.275177C14.8437 0.0917258 15.1677 0 15.4997 0C15.8316 0 16.1562 0.0917258 16.4737 0.275177C16.7899 0.458628 17.0234 0.733805 17.1743 1.10071L20.5688 9.26429L29.3494 10.044C29.7718 10.1051 30.1037 10.2427 30.3451 10.4567C30.5865 10.6707 30.7676 10.9459 30.8882 11.2822C31.0089 11.6186 31.0319 11.9622 30.957 12.3132C30.881 12.6655 30.6921 12.9792 30.3904 13.2543L23.7371 19.0789L25.7285 27.747C25.8191 28.1445 25.7889 28.504 25.638 28.8257C25.4872 29.1461 25.2759 29.4133 25.0044 29.6274C24.7328 29.8414 24.416 29.9637 24.0539 29.9943C23.6918 30.0248 23.3448 29.9331 23.0129 29.7191L15.4997 25.1328Z" fill="#F5DE19"/>
</svg>
