<svg width="82" height="82" viewBox="0 0 82 82" fill="none" xmlns="http://www.w3.org/2000/svg">
<path d="M29.2699 45.2858C29.129 45.3819 29.0265 45.478 28.8599 45.4267C28.8727 45.7342 28.8791 46.093 28.6357 46.3428C28.3923 46.5862 27.9823 46.6567 27.6748 46.503C27.7965 46.9194 27.5787 47.4126 27.1879 47.6048C26.7971 47.797 26.2782 47.6689 26.0219 47.3166C26.2077 48.348 24.4973 48.4697 23.9079 48.0981C23.6755 47.9489 23.4875 47.7399 23.3635 47.4931C23.2396 47.2463 23.1842 46.9707 23.2032 46.6951C23.2032 46.6695 23.2096 46.6439 23.1968 46.6183C23.184 46.5991 23.1584 46.5862 23.1391 46.5734C22.7035 46.3876 22.1974 46.2787 21.8323 45.9648C20.551 44.8694 21.4927 42.262 21.4927 42.262C22.6459 42.2876 23.799 42.3197 24.9521 42.3453L27.2904 42.403C28.2129 42.4286 28.6934 42.5567 29.2123 43.4216C29.4365 43.7931 29.6671 44.1903 29.6415 44.6259C29.6287 44.8822 29.4749 45.1448 29.2699 45.2858Z" fill="url(#paint0_linear_63_129)"/>
<path d="M29.065 44.6067C29.3981 45.3691 28.8792 45.7342 28.8792 45.7342C28.8536 45.3691 28.6998 44.9142 28.4628 44.6452C28.1745 44.2352 27.8414 44.2095 27.4827 44.1263C27.4827 44.1263 28.6166 43.5945 29.065 44.6067ZM27.6812 45.337C27.9503 45.51 28.1425 45.8367 28.1873 46.157C28.2258 47.182 27.2969 47.5408 27.2969 47.5408C27.5083 47.1564 27.6236 46.6759 27.5531 46.2467C27.5339 46.0289 27.4378 45.8303 27.2969 45.6638C27.1623 45.4908 26.9702 45.3755 26.778 45.2602C26.778 45.2666 27.252 45.068 27.6812 45.337ZM26.195 46.2788C26.3744 46.5414 26.4 46.8361 26.3808 47.0924C26.2206 48.0213 25.4198 48.1878 25.4198 48.1878C25.5928 47.8291 25.7081 47.4191 25.7402 47.0219C25.8106 46.6375 25.7081 46.2083 25.3686 45.9841C25.3814 45.9841 25.8042 45.7534 26.195 46.2788ZM24.0553 46.0545C24.2411 46.0609 24.4333 46.1314 24.5486 46.2724C24.6639 46.4197 24.6831 46.6439 24.5678 46.7848C24.4845 46.8873 24.3372 46.9386 24.2091 46.9002C24.0169 46.8553 23.9528 46.6183 23.9528 46.6183C23.8887 46.6247 23.7286 46.708 23.3378 46.6888C22.8637 46.6695 22.332 46.2595 22.332 46.2595C22.3577 46.2467 22.915 46.3877 23.4147 46.1763C23.5941 46.1122 23.8631 46.0545 24.0553 46.0545Z" fill="#EDBD82"/>
<path d="M56.0099 79.1877C58.0471 79.1877 58.9312 79.1813 58.9312 79.1813C59.2194 79.1813 59.4629 78.9506 59.4693 78.6623L59.4949 77.9C59.4949 75.7988 57.9702 76.023 57.1246 75.8692C56.0868 75.677 55.4269 74.9275 55.081 74.3958C54.9016 74.1267 48.8157 72.1664 48.8157 72.1664C47.4512 74.9852 47.291 76.5034 47.3166 77.5541L47.3551 78.6752C47.3615 78.9634 47.6049 79.1941 47.8932 79.1941L50.0585 79.1877C50.3596 79.1877 50.5966 78.9442 50.5966 78.6495C50.5966 78.4894 50.6479 78.342 50.7504 78.2267C50.8977 78.0666 51.3141 77.9705 51.6729 78.0602C53.8702 78.6175 53.4346 79.1877 56.0099 79.1877ZM27.2587 79.1877C29.2958 79.1877 30.1799 79.1813 30.1799 79.1813C30.4682 79.1813 30.7116 78.9506 30.718 78.6623L30.7437 77.9C30.7437 75.7988 29.219 76.023 28.3733 75.8692C27.3355 75.677 26.6757 74.9275 26.3297 74.3958C26.1504 74.1267 20.0644 72.1664 20.0644 72.1664C18.6999 74.9852 18.5397 76.5034 18.5654 77.5541L18.6038 78.6752C18.6102 78.9634 18.8537 79.1941 19.1419 79.1941L21.3072 79.1877C21.6083 79.1877 21.8454 78.9442 21.8454 78.6495C21.8454 78.4894 21.8966 78.342 21.9991 78.2267C22.1465 78.0666 22.5629 77.9705 22.9216 78.0602C25.1254 78.6175 24.6897 79.1877 27.2587 79.1877Z" fill="#455A64"/>
<path d="M55.9969 10.3974C54.7925 9.71829 53.7547 10.2692 53.0756 11.4608L50.1351 19.6992L41.0639 22.5436C40.2118 23.6263 40.9678 25.8364 41.7365 27.0344C42.6398 28.4438 43.3765 29.1228 44.7475 28.7833C44.7475 28.7833 49.8148 26.8934 52.3965 25.6827C54.5747 24.6641 55.3626 24.3117 55.9456 22.0247C56.5222 19.7377 57.7329 13.7991 57.7329 13.7991C58.412 12.6139 57.2012 11.0764 55.9969 10.3974Z" fill="#000000"/>
<path d="M59.0782 14.555L58.2454 9.51968L53.6713 8.62921L52.1274 13.8823C54.1774 15.4198 59.0782 14.555 59.0782 14.555Z" fill="#00C2FF"/>
<path d="M44.9464 23.7736C54.338 29.0139 55.3374 41.1409 55.3374 41.1409C55.3374 41.1409 50.1291 44.6067 45.6447 44.6067C41.1603 44.6067 42.4224 31.6981 42.4224 31.6981C42.4224 31.6981 33.4472 17.3609 44.9464 23.7736Z" fill="#000000"/>
<path d="M43.7866 24.5231C53.0052 29.6033 54.3441 41.7559 54.3441 41.7559C54.3441 41.7559 50.1352 44.6067 45.6509 44.6067C41.1665 44.6067 42.4285 31.6981 42.4285 31.6981C42.4285 31.6981 32.2554 18.1617 43.7866 24.5231Z" fill="#000000"/>
<path d="M32.3577 44.6067C31.0765 49.0911 29.5582 55.4653 28.072 57.9125C25.2276 62.6147 17.1621 71.1286 17.1621 71.1286C20.6215 76.0742 28.3923 75.8628 28.3923 75.8628C28.3923 75.8628 31.3455 65.6256 39.238 56.3558C41.5891 53.5947 42.659 53.3128 43.3829 53.8509C45.0037 55.0617 50.1479 60.7441 50.1479 60.7441C49.1677 63.6845 44.4527 73.6334 44.4527 73.6334C49.5201 77.3875 56.631 75.7731 56.631 75.7731C56.631 75.7731 57.073 70.7698 57.7649 62.7236C58.0596 59.3091 58.1237 57.2527 56.3171 54.9656C55.2216 53.5755 51.4291 49.1744 49.866 46.4517C48.9435 44.8438 48.6296 42.2108 48.6296 40.4363C48.6296 40.4363 47.2587 40.622 46.823 40.622H34.2091C33.4916 40.6413 34.113 38.4695 32.3577 44.6067Z" fill="#000000"/>
<path d="M40.1288 48.7964C40.1288 48.7964 41.41 44.9527 41.8649 40.2697C42.3966 34.7667 40.7374 29.1228 37.6688 24.5231C36.9064 23.3828 36.285 22.6781 35.0038 23.2099C34.3183 23.4917 33.2997 24.4655 32.5694 24.5231C31.2882 24.6192 29.2317 27.3355 29.4175 28.7641C29.4175 28.7641 32.9282 36.0031 33.0243 38.0852C33.1524 40.9295 30.8974 44.5939 29.8852 46.093C29.6289 46.4709 29.7699 46.9834 30.1799 47.1756C31.6918 47.9059 35.3241 49.2769 40.1288 48.7964Z" fill="#000000"/>
<path d="M39.2574 48.9502L39.8852 49.0847C40.2632 46.3877 40.9615 38.2966 36.9383 34.1773L39.0908 31.8327C36.6885 30.6475 33.511 30.6091 33.511 30.6091L32.896 30.4297L32.9088 31.1664L33.5046 31.2497C33.5302 31.2497 35.9133 31.2881 38.0082 32.0633L36.0543 34.1902C36.0543 34.1902 40.9358 39.2319 39.2574 48.9502Z" fill="#000000"/>
<path d="M36.9322 23.1714C32.6656 22.9792 30.9615 22.8255 27.9186 24.7858C25.8237 26.1375 23.8634 27.3098 21.9415 28.5911C20.0197 29.8723 18.7384 31.1536 19.379 34.3567C19.757 36.2402 21.9415 43.3255 21.9415 43.3255C21.9415 43.3255 25.734 42.4798 25.6315 41.1153L25.1383 33.0306L33.3703 30.1094C34.4722 29.283 34.3569 25.7275 33.4408 24.5295L36.9322 23.1714Z" fill="#000000"/>
<path d="M41.8008 41.7559C42.4671 28.2131 37.8289 26.5667 35.7789 28.2131C34.9461 28.8858 32.8 31.5316 32.8 31.5316C32.8 31.5316 32.5117 24.2925 33.2805 23.0369C34.0492 21.7748 36.3171 21.5827 37.6752 21.3648C38.9756 21.1534 40.0199 21.5891 41.3267 21.8773C47.528 23.2547 47.9444 25.3431 47.9444 25.3431C47.9444 25.3431 44.9078 24.3886 44.831 25.6122C44.7861 26.3105 46.1635 27.4572 47.1821 30.2183C48.2006 32.9794 48.6363 35.023 48.6363 41.2114L41.8008 41.7559Z" fill="url(#paint1_linear_63_129)"/>
<path d="M18.5591 40.2633L21.2177 43.9405L25.7149 42.3709L25.6124 38.0211C21.0319 37.1434 18.5591 40.2633 18.5591 40.2633Z" fill="#00C2FF"/>
<path d="M41.2178 32.595C40.731 31.6277 40.2057 30.6988 39.6291 29.8595C39.0461 29.0459 38.3158 28.29 37.5535 28.2131C37.3613 28.2067 37.1755 28.2003 36.9769 28.2516C36.7975 28.29 36.6054 28.3861 36.4068 28.5078C35.9968 28.7384 35.606 29.078 35.2024 29.3983C34.7988 29.725 34.408 30.0838 34.03 30.4553C33.62 30.8013 33.2485 31.1856 32.8257 31.538L32.7744 31.4995C33.4086 30.6347 34.0877 29.7955 34.8436 29.0331C35.2216 28.6552 35.6252 28.29 36.0736 27.9889C36.5157 27.6814 37.0794 27.502 37.6304 27.5725C38.1813 27.643 38.6746 27.9441 39.0654 28.3156C39.4625 28.6872 39.7764 29.1356 40.0519 29.5969C40.5964 30.5258 40.9872 31.538 41.2819 32.5694L41.2178 32.595Z" fill="#009688"/>
<path d="M36.9191 21.3584L40.686 21.9222L42.4669 28.2067C42.4669 28.2067 36.3297 25.0548 34.9395 22.377L34.4975 21.762L36.9191 21.3584ZM43.8827 13.8503L42.2363 13.767L33.3124 13.3378L31.666 13.2545C30.3463 13.1905 29.2188 14.2795 29.1547 15.6697C29.0906 17.0598 30.1156 18.2514 31.4289 18.3155L33.0753 18.3988L41.9928 18.8344L43.6392 18.9177C44.9589 18.9817 46.0864 17.8927 46.1505 16.5025C46.221 15.1059 45.196 13.9144 43.8827 13.8503Z" fill="#EDC391"/>
<path d="M38.2835 4.52281C34.3949 4.33062 30.6024 8.28328 30.327 14.2219C30.0515 20.1284 33.6262 23.2291 37.4123 23.4148C41.192 23.6006 45.0357 20.8587 45.3112 14.9522C45.5802 9.01359 42.1721 4.715 38.2835 4.52281Z" fill="#F9DDBD"/>
<path d="M32.64 13.357C32.64 13.357 33.1525 12.6523 34.28 12.6523C35.5292 12.6523 36.0161 13.5364 36.0161 13.5364C36.125 13.6966 36.0738 13.9144 35.9136 14.0169C35.8175 14.0809 35.6958 14.0873 35.5933 14.0489L35.5292 14.0233C35.5292 14.0233 34.9527 13.5492 34.1007 13.6261C33.4408 13.6838 33.2038 13.8567 33.1846 13.8631C33.1013 13.9016 33.0564 13.9144 33.0564 13.9144C32.8707 13.9784 32.6592 13.8823 32.5952 13.6966C32.5733 13.6408 32.566 13.5804 32.5739 13.521C32.5817 13.4616 32.6045 13.4052 32.64 13.357ZM42.8324 14.3308C42.8324 14.3308 42.4928 14.0425 41.6408 13.9784C40.9361 13.9272 40.43 14.2539 40.43 14.2539L40.366 14.2731C40.1802 14.3308 39.9816 14.2219 39.9303 14.0361C39.8983 13.9208 39.8983 13.8375 39.9944 13.7222C40.1482 13.5236 40.7119 13.0047 41.6088 13.0047C42.6914 13.0047 43.1399 13.5364 43.3769 13.8759C43.4922 14.0425 43.4346 14.2923 43.2616 14.3692C43.1399 14.4269 42.9605 14.4333 42.8324 14.3308Z" fill="#454140"/>
<path d="M35.344 15.4537C35.347 14.8274 34.8561 14.3174 34.2476 14.3144C33.639 14.3115 33.1433 14.8168 33.1402 15.443C33.1372 16.0693 33.6281 16.5793 34.2366 16.5823C34.8452 16.5852 35.341 16.0799 35.344 15.4537Z" fill="#312D2D"/>
<path d="M42.6916 15.8154C42.6947 15.1892 42.2038 14.6792 41.5953 14.6762C40.9867 14.6733 40.4909 15.1786 40.4879 15.8048C40.4849 16.431 40.9757 16.9411 41.5843 16.944C42.1928 16.947 42.6886 16.4417 42.6916 15.8154Z" fill="#312D2D"/>
<path d="M39.5586 19.7569C38.8283 20.1413 36.4964 20.0259 35.7981 19.5711C35.4009 19.3084 34.9653 19.6608 35.119 20.0388C35.2664 20.4103 36.5028 21.3136 37.6047 21.3648C38.7065 21.4161 40.0006 20.6409 40.1864 20.2822C40.3722 19.9298 39.975 19.5391 39.5586 19.7569Z" fill="#444444"/>
<path d="M38.5338 17.6684C38.5123 17.6562 38.4881 17.6496 38.4633 17.6492L36.881 17.5723C36.857 17.5729 36.8332 17.5772 36.8105 17.5852C36.6632 17.6364 36.5799 17.7773 36.6376 17.9375C36.6952 18.0977 36.9899 18.5525 37.6241 18.5845C38.2583 18.6166 38.5915 18.1873 38.6683 18.04C38.7452 17.8798 38.6747 17.7325 38.5338 17.6684Z" fill="#DBA689"/>
<path d="M45.4076 2.70984C45.3564 2.69702 45.2987 2.6714 45.2411 2.65859C45.0489 2.62655 44.7862 2.62655 44.6901 2.81234C44.1392 3.93984 42.2814 4.3114 40.3531 4.06156C39.7061 3.97827 37.323 5.19546 36.772 5.63749C36.1186 6.16281 41.4294 8.95593 41.4294 8.95593C43.3897 9.2314 44.6901 11.9348 45.7023 10.7048C48.6492 7.13655 46.58 3.36327 45.4076 2.70984Z" fill="url(#paint2_radial_63_129)"/>
<path d="M38.2133 3.76047H38.2069C28.4758 3.45938 29.8276 14.587 29.8276 14.587C29.8276 14.587 30.2248 15.7466 30.4041 16.2591C30.4298 16.3359 30.5387 16.3295 30.5579 16.2527C30.8013 15.3302 31.9096 12.1206 32.326 11.1341C32.5694 10.5511 33.1908 10.2308 33.8123 10.3653C34.7604 10.5703 36.2723 10.8394 37.9443 10.9034H37.9827C39.6548 10.9611 41.1858 10.8073 42.1404 10.6664C42.7618 10.5767 43.364 10.9419 43.5626 11.5377C43.9021 12.5498 44.7926 15.9131 44.9719 16.8677C44.9848 16.9445 45.0937 16.9573 45.1257 16.8869L45.5549 15.202C45.5421 15.202 47.938 4.16407 38.2133 3.76047Z" fill="#312D2D"/>
<path d="M38.2133 3.76047H38.2069C28.4758 3.45938 29.8276 14.587 29.8276 14.587C29.8276 14.587 30.2248 15.7466 30.4041 16.2591C30.4298 16.3359 30.5387 16.3295 30.5579 16.2527C30.8013 15.3302 31.9096 12.1206 32.326 11.1341C32.5694 10.5511 33.1908 10.2308 33.8123 10.3653C34.7604 10.5703 36.2723 10.8394 37.9443 10.9034H37.9827C39.6548 10.9611 41.1858 10.8073 42.1404 10.6664C42.7618 10.5767 43.364 10.9419 43.5626 11.5377C43.9021 12.5498 44.7926 15.9131 44.9719 16.8677C44.9848 16.9445 45.0937 16.9573 45.1257 16.8869L45.5549 15.202C45.5421 15.202 47.938 4.16407 38.2133 3.76047Z" fill="url(#paint3_radial_63_129)"/>
<path d="M54.8952 5.08657C54.8952 5.08657 54.8375 4.02953 55.8177 4.08078C56.9067 4.13844 56.5928 5.17625 56.5928 5.17625L54.8952 5.08657Z" fill="url(#paint4_linear_63_129)"/>
<path d="M53.3447 7.79L53.2165 7.55297C53.0372 5.85531 53.1781 3.32484 53.3959 1.31969C53.4984 0.371561 53.9276 0.23703 54.1775 0.23703C54.5106 0.23703 54.9206 0.435624 54.9526 1.35172C54.9783 2.01797 54.9719 2.665 54.959 3.29281C54.9462 4.04875 54.9334 4.76625 55.0039 5.33L54.8822 5.34922L53.4472 7.62344C53.4536 7.67469 53.46 7.72594 53.46 7.77719L53.3447 7.79Z" fill="url(#paint5_linear_63_129)"/>
<path d="M53.6074 6.39344C53.7163 6.22687 53.9726 5.77844 54.0623 5.65672C55.0296 5.09938 56.2596 5.56703 56.4582 5.49016L56.5991 4.67016C56.6696 4.29219 57.1181 4.10641 57.5216 4.22172C58.2968 4.44594 58.2007 5.05453 58.2007 5.05453C58.2263 5.06094 58.5018 4.68297 59.0848 4.79828C60.2443 5.02891 60.0265 10.4742 56.2724 10.2692C56.2724 10.2692 56.0098 10.2756 55.8368 10.2436C53.8573 9.9425 53.5626 8.96875 53.4024 8.52031C53.2935 8.21281 53.2359 7.87969 53.2102 7.55297C53.191 7.21344 53.396 6.70734 53.6074 6.39344Z" fill="url(#paint6_linear_63_129)"/>
<path d="M56.8237 7.20063C57.1632 7.30313 57.2529 7.13016 57.4387 7.01485C57.6116 7.54657 58.2459 7.55297 58.2459 7.57219C58.2202 7.83485 57.8999 8.52032 57.7205 8.7061C57.0927 9.35954 56.6379 9.12251 56.6379 9.12251C56.6379 9.12251 55.9716 8.18719 55.7987 7.95016C55.6257 7.71313 55.0427 7.2711 55.0363 7.23907C55.0171 6.99563 55.0876 6.70094 55.2157 6.59844C55.3054 6.52157 56.2855 6.50235 56.2855 6.50235C56.2855 6.50235 56.3816 7.07251 56.8237 7.20063Z" fill="url(#paint7_linear_63_129)"/>
<path d="M58.8477 6.83546C58.79 6.93796 58.7195 7.06609 58.6298 7.175C58.5338 7.29031 58.4313 7.36078 58.2839 7.39281C58.143 7.42484 58.0341 7.33515 57.97 7.20703C57.9188 7.10453 57.9123 6.98281 57.9123 6.8675C57.9123 6.765 57.9188 6.65609 57.938 6.55359C58.0148 6.06671 58.2711 5.62468 58.3416 5.13781C58.348 5.08015 58.3544 5.01609 58.3095 4.97125C58.2949 4.95608 58.2758 4.94602 58.2551 4.94256C58.2343 4.9391 58.213 4.94242 58.1942 4.95203C58.1173 4.99046 58.0725 5.14421 58.0341 5.21468C57.9828 5.32359 57.9316 5.4389 57.8803 5.54781C57.765 5.79765 57.6561 6.0539 57.5472 6.31015L57.4127 6.63687L57.3806 6.71375C57.3742 6.72656 57.3806 6.72656 57.3486 6.78421C57.3358 6.81625 57.3166 6.84828 57.2845 6.88031C57.182 7.00203 57.0155 7.05328 56.8681 7.00203C56.7208 6.96359 56.6055 6.82265 56.5734 6.6625C56.567 6.62406 56.567 6.57921 56.567 6.54718L56.5863 6.38062C56.5991 6.29734 56.6055 6.20765 56.6119 6.12437L56.6183 6.02828C56.6439 5.71437 56.6503 5.38765 56.6952 5.08015C56.7144 4.96484 56.7208 4.84953 56.7208 4.73421C56.7208 4.68937 56.7144 4.65093 56.7016 4.6125C56.6823 4.56125 56.6119 4.49718 56.5542 4.53562C56.5094 4.56125 56.5222 4.62531 56.5158 4.67015C56.4902 4.83031 56.4453 4.98406 56.4133 5.14421C56.3556 5.41968 56.3044 5.70156 56.2595 5.97703L56.2467 6.0539C56.2339 6.14359 56.2147 6.23328 56.2019 6.32296L56.1763 6.50875C56.1503 6.70314 56.1939 6.90044 56.2995 7.06575C56.405 7.23106 56.5656 7.35372 56.7528 7.41203C56.9066 7.45687 57.0731 7.45687 57.2269 7.41203C57.3486 7.37359 57.4575 7.29671 57.5472 7.20703C57.5536 7.22625 57.5472 7.25187 57.5536 7.27109C57.5792 7.37359 57.6241 7.46968 57.6945 7.54656C57.7586 7.61703 57.8355 7.68109 57.938 7.72593C58.0277 7.77078 58.1238 7.7964 58.2198 7.80921C58.3223 7.82203 58.4313 7.80921 58.5273 7.77078C58.6939 7.71312 58.8348 7.59781 58.9694 7.42484C59.0911 7.25828 58.9822 7.41843 59.2 6.98921C59.3345 6.64328 59.3922 6.26531 59.4819 5.90656C59.5011 5.81687 59.5203 5.72078 59.4819 5.6375C59.4691 5.60546 59.437 5.57343 59.3986 5.57343C59.3538 5.57343 59.3281 5.61828 59.3089 5.65671C59.2641 5.75921 59.2256 5.86812 59.2128 5.97703C59.2 6.07953 59.1616 6.1564 59.1231 6.2525C59.0334 6.44468 58.9502 6.64328 58.8477 6.83546Z" fill="#EDBD82"/>
<path d="M53.2165 7.55297C53.1589 8.5139 53.9084 9.45562 54.2864 9.71828C55.1192 10.2884 56.5157 10.3461 56.5862 10.2756C56.6054 10.2564 56.567 9.49406 56.5798 9.3339C56.6375 8.7125 56.1442 8.0014 55.6061 7.66187C55.3818 7.52093 54.7476 6.86109 55.7982 6.75859C56.4837 6.68812 56.9193 6.41265 57.0218 6.10515C57.1243 5.79765 56.74 5.30437 56.5542 5.27875C56.5542 5.27875 54.2351 4.48437 53.5496 6.32937C53.4087 6.68812 53.2357 7.21343 53.2165 7.55297Z" fill="url(#paint8_linear_63_129)"/>
<path d="M56.3363 5.0161C56.1121 4.96485 55.8751 4.93281 55.6252 4.92641C55.3754 4.92 55.132 4.93281 54.9077 4.97125C54.613 5.0225 54.3952 5.09297 54.203 5.20188C53.793 5.4325 53.6137 5.82969 53.4599 6.25891C53.3766 6.48313 53.3126 6.72016 53.2677 6.95719C53.2485 7.0725 53.2293 7.18781 53.2165 7.30313C53.2101 7.36719 53.2293 7.5786 53.1973 7.62344C53.5945 7.11094 53.7162 6.43188 54.107 5.91938C54.1902 5.81047 54.2863 5.71438 54.3952 5.6311C54.9141 5.25313 55.6445 5.25953 56.2466 5.39406C56.4965 5.45172 56.6695 5.52219 56.7912 5.61828C56.8488 5.66313 56.8873 5.72078 56.8873 5.76563C56.8873 5.77844 56.8873 5.79125 56.8809 5.82328C56.8809 5.84891 56.8745 5.87453 56.8745 5.89375C56.868 5.945 56.8552 5.98985 56.8424 6.03469C56.7976 6.18203 56.6823 6.41906 56.5349 6.49594C56.3812 6.57922 56.1698 6.53438 56.016 6.50235C55.8815 6.47672 55.7405 6.44469 55.606 6.41906C55.5035 6.39985 55.3882 6.38063 55.3113 6.44469C55.2793 6.47031 55.2537 6.50875 55.2345 6.54719C55.1512 6.71375 55.0871 6.89313 55.0551 7.0725C55.023 7.23266 55.0743 7.32235 55.1704 7.45688C55.2985 7.63625 55.4779 7.77078 55.6509 7.91813C55.9455 8.16797 56.2338 8.46266 56.3427 8.83422C56.3876 8.97516 56.4004 9.1225 56.4452 9.25703C56.4645 9.30828 56.4901 9.35953 56.5413 9.37875C56.6118 9.39797 56.6759 9.3275 56.6951 9.25703C56.7912 8.85985 56.599 8.44985 56.3748 8.12953C56.1057 7.75156 55.7918 7.43766 55.3818 7.21344C55.4779 7.08531 55.542 6.93797 55.574 6.78422C55.5612 6.84188 56.0993 6.84828 56.1505 6.84828C56.4965 6.8611 56.8104 6.79703 57.0602 6.52797C57.1371 6.44469 57.2012 6.3486 57.2396 6.2461C57.3037 6.07313 57.2909 5.88094 57.278 5.69516C57.2652 5.52219 57.1499 5.4261 57.0282 5.31719C56.804 5.14422 56.5541 5.06735 56.3363 5.0161Z" fill="#EDBD82"/>
<defs>
<linearGradient id="paint0_linear_63_129" x1="23.241" y1="42.1322" x2="28.2953" y2="47.718" gradientUnits="userSpaceOnUse">
<stop offset="0.5" stop-color="#F9DDBD"/>
<stop offset="1" stop-color="#FFD29C"/>
</linearGradient>
<linearGradient id="paint1_linear_63_129" x1="40.6912" y1="43.699" x2="40.6912" y2="27.9575" gradientUnits="userSpaceOnUse">
<stop offset="0.116" stop-color="#00C2FF"/>
<stop offset="0.377" stop-color="#00C2FF"/>
<stop offset="1" stop-color="#00C2FF"/>
</linearGradient>
<radialGradient id="paint2_radial_63_129" cx="0" cy="0" r="1" gradientUnits="userSpaceOnUse" gradientTransform="translate(38.6881 8.86792) rotate(9.735) scale(4.78355 4.78355)">
<stop stop-color="#454140" stop-opacity="0"/>
<stop offset="1" stop-color="#454140"/>
</radialGradient>
<radialGradient id="paint3_radial_63_129" cx="0" cy="0" r="1" gradientUnits="userSpaceOnUse" gradientTransform="translate(37.7008 12.4322) scale(8.58437 8.70971)">
<stop offset="0.646" stop-color="#454140" stop-opacity="0"/>
<stop offset="1" stop-color="#454140"/>
</radialGradient>
<linearGradient id="paint4_linear_63_129" x1="54.8952" y1="4.62403" x2="56.637" y2="4.62403" gradientUnits="userSpaceOnUse">
<stop offset="0.5" stop-color="#F9DDBD"/>
<stop offset="1" stop-color="#FFD29C"/>
</linearGradient>
<linearGradient id="paint5_linear_63_129" x1="53.1352" y1="4.01544" x2="55.0097" y2="4.01544" gradientUnits="userSpaceOnUse">
<stop offset="0.5" stop-color="#F9DDBD"/>
<stop offset="1" stop-color="#FFD29C"/>
</linearGradient>
<linearGradient id="paint6_linear_63_129" x1="53.2147" y1="7.23073" x2="59.7113" y2="7.23073" gradientUnits="userSpaceOnUse">
<stop offset="0.5" stop-color="#F9DDBD"/>
<stop offset="1" stop-color="#FFD29C"/>
</linearGradient>
<linearGradient id="paint7_linear_63_129" x1="56.0614" y1="6.83093" x2="57.7207" y2="8.67362" gradientUnits="userSpaceOnUse">
<stop stop-color="#FFD29C"/>
<stop offset="0.355" stop-color="#FED4A3" stop-opacity="0.645"/>
<stop offset="0.884" stop-color="#FADBB8" stop-opacity="0.116"/>
<stop offset="1" stop-color="#F9DDBD" stop-opacity="0"/>
</linearGradient>
<linearGradient id="paint8_linear_63_129" x1="53.8139" y1="9.24825" x2="57.3466" y2="6.0669" gradientUnits="userSpaceOnUse">
<stop offset="0.5" stop-color="#F9DDBD"/>
<stop offset="1" stop-color="#FFD29C"/>
</linearGradient>
</defs>
</svg>
