<svg width="110" height="126" viewBox="0 0 110 126" fill="none" xmlns="http://www.w3.org/2000/svg">
<path d="M10.0372 112.876L0.0322266 0.661011H109.968L99.9522 112.859L54.9332 125.339L10.0372 112.876Z" fill="#E44D26"/>
<path d="M55 115.8L91.378 105.714L99.937 9.836H55V115.8Z" fill="#F16529"/>
<path d="M54.9998 51.455H36.7878L35.5298 37.361H54.9998V23.599H20.4888L20.8188 27.291L24.2008 65.218H54.9998V51.455ZM54.9998 87.198L54.9388 87.215L39.6118 83.075L38.6328 72.1H24.8158L26.7438 93.709L54.9368 101.535L54.9998 101.518V87.198Z" fill="#EBEBEB"/>
<path d="M54.9521 51.455V65.218H71.8992L70.3022 83.067L54.9521 87.21V101.529L83.1671 93.709L83.3741 91.384L86.6082 55.151L86.9431 51.455H83.2351H54.9521ZM54.9521 23.599V37.361H88.1961L88.4721 34.269L89.1001 27.291L89.4291 23.599H54.9521Z" fill="white"/>
</svg>
