<svg width="130" height="130" viewBox="0 0 130 130" fill="none" xmlns="http://www.w3.org/2000/svg">
<g filter="url(#filter0_d_0_1)">
<circle cx="65" cy="61" r="56" fill="#333333"/>
</g>
<path d="M97.006 38.9067L68.0673 22.1034C66.2423 21.0639 63.866 21.0639 62.0265 22.1034L32.7788 38.9067C30.8953 39.9902 29.5625 42.0265 29.5625 44.2046V77.7666C29.5625 79.9447 30.9301 81.9817 32.8136 83.071L40.5409 87.46C44.2343 89.2792 45.5396 89.2792 47.2202 89.2792C52.6888 89.2792 55.8125 85.9723 55.8125 80.2045V47.0705C55.8125 46.6025 55.569 45.9063 55.1097 45.9063H51.4196C50.9523 45.9063 49.9062 46.6025 49.9062 47.0698V80.2039C49.9062 82.7606 47.5936 85.3049 43.2716 83.1439L35.287 78.5416C35.0087 78.3907 34.8125 78.0868 34.8125 77.7666V44.2046C34.8125 43.8883 35.1767 43.5707 35.4569 43.4086L64.6102 26.6342C64.8825 26.4799 65.2828 26.4799 65.5545 26.6342L94.3521 43.4046C94.6277 43.5707 94.5306 43.8785 94.5306 44.2046V77.7666C94.5306 78.0868 94.6507 78.3985 94.3783 78.5527L65.4469 95.337C65.1988 95.486 64.8911 95.486 64.6194 95.337L57.1992 90.908C56.9754 90.778 56.7096 90.7314 56.495 90.8515C54.4304 92.0216 54.0498 92.1772 52.1132 92.8485C51.6368 93.0145 50.9339 93.3026 52.3823 94.1144L62.0935 99.8592C63.0206 100.395 64.0724 100.677 65.1431 100.677C66.2206 100.677 67.2759 100.397 68.2058 99.8592L97.0053 83.071C98.8887 81.9738 99.7812 79.9447 99.7812 77.7666V44.2046C99.7812 42.0265 98.8888 39.9954 97.006 38.9067V38.9067ZM74.1284 72.4483C66.4333 72.4483 64.7382 70.3253 64.1731 66.4987C64.1075 66.0866 63.7577 65.5938 63.3384 65.5938H59.5774C59.1121 65.5938 58.7381 66.1581 58.7381 66.6215C58.7381 71.521 61.4018 77.4575 74.1291 77.4575C83.3422 77.4575 88.6243 73.8776 88.6243 67.5422C88.6243 61.2606 84.3804 59.6121 75.4455 58.4295C66.4142 57.2358 65.4968 56.6327 65.4968 54.5169C65.4968 52.7726 66.2738 50.4462 72.961 50.4462C78.9361 50.4462 81.1385 51.7285 82.0448 55.7559C82.1222 56.1346 82.4681 56.4063 82.8585 56.4063H86.6346C86.8669 56.4063 87.0887 56.3124 87.2515 56.1464C87.409 55.9679 87.4923 55.7441 87.4713 55.5039C86.8866 48.5687 82.2791 45.3366 72.9603 45.3366C64.6712 45.3366 59.7264 48.8371 59.7264 54.7046C59.7264 61.0689 64.6463 62.8277 72.6033 63.6145C82.1222 64.5477 82.8625 65.939 82.8625 67.8112C82.8625 71.063 80.2519 72.4483 74.1284 72.4483Z" fill="#83CD29"/>
<defs>
<filter id="filter0_d_0_1" x="0" y="0" width="130" height="130" filterUnits="userSpaceOnUse" color-interpolation-filters="sRGB">
<feFlood flood-opacity="0" result="BackgroundImageFix"/>
<feColorMatrix in="SourceAlpha" type="matrix" values="0 0 0 0 0 0 0 0 0 0 0 0 0 0 0 0 0 0 127 0" result="hardAlpha"/>
<feMorphology radius="5" operator="dilate" in="SourceAlpha" result="effect1_dropShadow_0_1"/>
<feOffset dy="4"/>
<feGaussianBlur stdDeviation="2"/>
<feComposite in2="hardAlpha" operator="out"/>
<feColorMatrix type="matrix" values="0 0 0 0 0 0 0 0 0 0 0 0 0 0 0 0 0 0 0.06 0"/>
<feBlend mode="normal" in2="BackgroundImageFix" result="effect1_dropShadow_0_1"/>
<feBlend mode="normal" in="SourceGraphic" in2="effect1_dropShadow_0_1" result="shape"/>
</filter>
</defs>
</svg>
