<svg width="128" height="122" viewBox="0 0 128 122" fill="none" xmlns="http://www.w3.org/2000/svg">
<path d="M88.6902 85.11C79.6902 103.51 63.9302 115.89 43.0802 119.96C39.8833 120.743 36.6015 121.126 33.3102 121.1C21.3102 121.1 10.3102 116.1 4.97018 107.91C-2.19982 97 -4.63982 73.87 19.0002 56.76C19.4802 59.37 20.4602 62.95 21.1102 65.07C16.4695 68.5177 12.6709 72.9727 10.0002 78.1C5.60018 86.74 6.09018 95.37 11.3002 103.35C14.9002 108.73 20.6002 112 27.9302 113C37.0855 114.159 46.3735 112.41 54.4802 108C67.1902 101.32 75.6602 93.34 81.2002 82.43C79.6337 80.8111 78.7065 78.6797 78.5902 76.43C78.5064 74.0159 79.3839 71.6671 81.03 69.8992C82.676 68.1313 84.9562 67.0886 87.3702 67H87.7102C90.0581 66.9882 92.3208 67.8795 94.0299 69.4895C95.739 71.0994 96.7639 73.3048 96.8923 75.6493C97.0208 77.9937 96.2431 80.2979 94.7201 82.0849C93.1971 83.872 91.0454 85.0051 88.7102 85.25L88.6902 85.11ZM117.36 64.91C129.57 78.75 129.9 95.04 125.18 104.49C120.78 113.12 109.18 121.76 93.5802 121.76C86.2978 121.611 79.1339 119.889 72.5802 116.71C74.8702 115.08 78.1202 112.47 79.9102 110.84C84.9641 113.029 90.4029 114.192 95.9102 114.26C106.01 114.26 113.66 109.54 118.22 100.91C121.15 95.21 121.32 88.53 118.55 81.69C115.151 73.0838 109.103 65.7818 101.28 60.84C91.0169 53.9214 78.9177 50.2332 66.5402 50.25H63.6102C62.9269 51.8283 61.8155 53.1837 60.4016 54.1628C58.9877 55.1419 57.3279 55.7056 55.6102 55.79H55.3002C52.9243 55.7608 50.6535 54.8065 48.9699 53.1299C47.2863 51.4533 46.3227 49.1864 46.2836 46.8107C46.2446 44.435 47.1332 42.1377 48.7608 40.4067C50.3883 38.6756 52.6266 37.6473 55.0002 37.54H55.3302C56.9842 37.5412 58.606 37.9983 60.0173 38.8609C61.4286 39.7236 62.5748 40.9585 63.3302 42.43H65.9402C86.7402 42.43 105 50.41 117.36 64.91ZM34.6102 87.91C34.4389 86.2494 34.8412 84.5802 35.7502 83.18C26.6302 67.38 21.7502 47.35 29.2402 26.5C34.6102 10.83 48.1302 0.23999 62.7902 0.23999C78.4302 0.23999 94.7202 13.93 96.6702 40.31C94.2302 39.5 90.6702 38.31 88.5302 37.87C88.0002 29.24 80.7102 7.73999 63.4402 8.05999C57.2502 8.22999 48.1302 11.16 43.4402 17.18C37.6388 24.3662 34.2639 33.206 33.8002 42.43C32.7009 55.0777 35.6683 67.7461 42.2702 78.59C42.6346 78.4568 43.0231 78.4023 43.4102 78.43H43.7302C46.149 78.3862 48.486 79.3051 50.2273 80.9845C51.9686 82.6639 52.9714 84.9662 53.0152 87.385C53.0589 89.8038 52.1401 92.1409 50.4607 93.8821C48.7813 95.6234 46.479 96.6262 44.0602 96.67H43.7302C41.3705 96.6616 39.105 95.7429 37.406 94.1054C35.707 92.4678 34.7055 90.2378 34.6102 87.88V87.91Z" fill="#764ABC"/>
</svg>
