<svg width="132" height="132" viewBox="0 0 132 132" fill="none" xmlns="http://www.w3.org/2000/svg">
<g filter="url(#filter0_d_0_1)">
<circle cx="66" cy="62" r="57" fill="#333333"/>
</g>
<path d="M46 56H96.6137V93.4106H46V56Z" fill="white"/>
<path d="M34 61.7383V93.4766H97.4766V30H34V61.7383ZM85.152 59.1992C86.6723 59.552 88.0541 60.3472 89.123 61.4844C89.7115 62.097 90.2231 62.7791 90.6465 63.5156C90.6465 63.5969 87.9043 65.4504 86.2336 66.4863C86.1727 66.527 85.9289 66.2629 85.6598 65.8617C85.3548 65.3355 84.9214 64.895 84.4002 64.5816C83.8789 64.2681 83.2867 64.0918 82.6789 64.0691C80.7543 63.9371 79.5152 64.9477 79.5254 66.6082C79.5095 67.0216 79.6041 67.4318 79.7996 67.7965C80.2211 68.675 81.0082 69.198 83.4762 70.2644C88.0211 72.2195 89.966 73.5094 91.1746 75.3426C92.5254 77.3738 92.825 80.6543 91.9109 83.0816C90.8953 85.7223 88.407 87.5148 84.8879 88.109C83.2806 88.2931 81.6566 88.276 80.0535 88.0582C77.5965 87.6532 75.3333 86.4736 73.5941 84.6914C73.0102 84.0465 71.8727 82.3656 71.9438 82.2437C72.1291 82.1061 72.3243 81.9822 72.5277 81.873L74.8789 80.573L76.702 79.5168L77.0828 80.0805C77.7256 80.9999 78.5436 81.7834 79.4898 82.3859C81.5211 83.4523 84.2937 83.3051 85.6648 82.0711C86.1252 81.6189 86.4124 81.0196 86.4764 80.3775C86.5404 79.7354 86.3772 79.0912 86.0152 78.557C85.5074 77.8512 84.4918 77.257 81.6531 76.018C78.3777 74.6062 76.966 73.7328 75.6762 72.3414C74.871 71.4232 74.2764 70.3399 73.9344 69.1676C73.6792 67.8282 73.6415 66.4565 73.8227 65.1051C74.498 61.9414 76.8695 59.7324 80.3328 59.0773C81.9367 58.8789 83.5613 58.9234 85.152 59.2094V59.1992ZM70.2527 61.8602V64.4602H62.0109V87.9363H56.166V64.4551H47.9039V61.916C47.8782 61.0404 47.8985 60.1641 47.9648 59.2906C48.0055 59.2449 53.043 59.2449 59.1367 59.2449H70.2223L70.2527 61.8602Z" fill="#007ACC"/>
<defs>
<filter id="filter0_d_0_1" x="0" y="0" width="132" height="132" filterUnits="userSpaceOnUse" color-interpolation-filters="sRGB">
<feFlood flood-opacity="0" result="BackgroundImageFix"/>
<feColorMatrix in="SourceAlpha" type="matrix" values="0 0 0 0 0 0 0 0 0 0 0 0 0 0 0 0 0 0 127 0" result="hardAlpha"/>
<feMorphology radius="5" operator="dilate" in="SourceAlpha" result="effect1_dropShadow_0_1"/>
<feOffset dy="4"/>
<feGaussianBlur stdDeviation="2"/>
<feComposite in2="hardAlpha" operator="out"/>
<feColorMatrix type="matrix" values="0 0 0 0 0 0 0 0 0 0 0 0 0 0 0 0 0 0 0.06 0"/>
<feBlend mode="normal" in2="BackgroundImageFix" result="effect1_dropShadow_0_1"/>
<feBlend mode="normal" in="SourceGraphic" in2="effect1_dropShadow_0_1" result="shape"/>
</filter>
</defs>
</svg>
